<svg enable-background="new 0 0 496 496" viewBox="0 0 496 496" xmlns="http://www.w3.org/2000/svg"><path d="m256 478.3c0 4.8-3.2 8.8-8 8.8-4.8 0-8-4-8-8.8v-136.8c0-4.8 3.2-8.8 8-8.8 4.8 0 8 4 8 8.8z" fill="#9b9b9b"/><path d="m496 239.9c0 4.8-3.2 8-8 8h-136c-4.8 0-8-3.2-8-8 0-4.8 3.2-8 8-8h136c4.8 0 8 3.2 8 8z" fill="#d6d6d6"/><path d="m152 239.9c0 4.8-3.2 8-8 8h-136c-4.8 0-8-3.2-8-8 0-4.8 3.2-8 8-8h136c4.8 0 8 3.2 8 8z" fill="#515151"/><path d="m326.4 172.7c-3.2 3.2-8.8 3.2-12 0-3.2-3.2-3.2-8.8 0-12l96.8-96.8c3.2-3.2 8.8-3.2 12 0 3.2 3.2 3.2 8.8 0 12z" fill="#ededed"/><path d="m84.8 414.3c-3.2 3.2-8.8 3.2-12 0-3.2-3.2-3.2-8.8 0-12l96.8-96.8c3.2-3.2 8.8-3.2 12 0 3.2 3.2 3.2 8.8 0 12z" fill="#7a7a7a"/><path d="m314.4 317.5c-3.2-3.2-3.2-8.8 0-12 3.2-3.2 8.8-3.2 12 0l96.8 96.8c3.2 3.2 3.2 8.8 0 12-3.2 3.2-8.8 3.2-12 0z" fill="#bfbfbf"/><path d="m72.8 75.1c-3.2-3.2-3.2-8 0-11.2 3.2-3.2 8.8-3.2 12 0l96.8 96.8c3.2 3.2 3.2 8.8 0 12-3.2 3.2-8.8 3.2-12 0z" fill="#2b2b2b"/><path d="m295.2 147.1c-2.4 4.8-7.2 6.4-11.2 4.8-4-1.6-6.4-6.4-4.8-11.2l52-126.4c1.6-4 6.4-6.4 11.2-4.8 4 1.6 6.4 6.4 4.8 11.2z" fill="#f4f4f4"/><path d="m164.8 463.9c-1.6 4-6.4 6.4-11.2 4.8-4-1.6-6.4-6.4-4.8-11.2l52-126.4c1.6-4 6.4-6.4 11.2-4.8 4 1.6 6.4 6.4 4.8 11.2z" fill="#898989"/><path d="m340 285.5c-4-1.6-6.4-6.4-4.8-11.2 1.6-4 6.4-6.4 11.2-4.8l126.4 52c4 1.6 6.4 6.4 4.8 11.2-1.6 4-6.4 6.4-11.2 4.8z" fill="#ccc"/><path d="m23.2 155.1c-4-1.6-6.4-6.4-4.8-11.2 1.6-4 6.4-6.4 11.2-4.8l126.4 52.8c4 1.6 6.4 6.4 4.8 11.2-1.6 4-6.4 6.4-11.2 4.8z" fill="#3f3f3f"/><path d="m345.6 207.1c-4 1.6-8.8 0-11.2-4.8-1.6-4 0-9.6 4.8-11.2l126.4-52.8c4-1.6 9.6 0 11.2 4.8 1.6 4 0 9.6-4.8 11.2z" fill="#e2e2e2"/><path d="m30.4 339.1c-4 1.6-9.6 0-11.2-4.8-1.6-4 0-9.6 4.8-11.2l126.4-52.8c4-1.6 8.8 0 11.2 4.8 1.6 4 0 9.6-4.8 11.2z" fill="#6d6d6d"/><path d="m280 336.7c-1.6-4 0-8.8 4.8-11.2 4-1.6 9.6 0 11.2 4.8l52.8 126.4c1.6 4 0 9.6-4.8 11.2-4 1.6-9.6 0-11.2-4.8z" fill="#adadad"/><path d="m148 20.7c-1.6-4 0-9.6 4.8-11.2 4-1.6 9.6 0 11.2 4.8l52 126.4c1.6 4 0 9.6-4.8 11.2-4 1.6-9.6 0-11.2-4.8z" fill="#0c0c0c"/></svg>